<svg width="428" height="638" viewBox="0 0 428 638" fill="none" xmlns="http://www.w3.org/2000/svg">
<path d="M214.156 638.008C312.068 638.008 391.442 615.654 391.442 588.078C391.442 560.502 312.068 538.147 214.156 538.147C116.244 538.147 36.8701 560.502 36.8701 588.078C36.8701 615.654 116.244 638.008 214.156 638.008Z" fill="#FEDFF6"/>
<path d="M70.6752 224.735L85.2462 202.336C82.3967 199.626 79.1747 197.055 75.5721 194.624C70.648 203.678 64.223 213.648 57.9966 223.313C56.6262 225.44 55.2504 227.576 53.8855 229.706C56.5093 230.821 59.424 231.095 62.2735 230.473C65.7837 229.706 68.7665 227.67 70.6752 224.735Z" fill="url(#paint0_linear_24_141)"/>
<path d="M297.963 447.975C299.059 445.647 306.476 429.68 313.494 409.103C320.446 388.722 328.424 359.522 326.947 336.159C324.299 294.28 336.621 232.854 338.759 222.61L241.435 174.836C240.837 174.541 240.427 173.982 240.342 173.342C234.774 131.708 219.406 22.6205 214.42 11.695C205.545 5.37729 195.379 3.18175 186.455 5.67229C179.965 7.48407 174.967 11.7237 172.71 17.3235C169.121 55.5405 180.128 132.186 180.239 132.956C180.242 132.974 180.245 132.993 180.247 133.011C184.709 171.946 176.267 181.177 170.837 183.213C166.299 184.915 161.174 182.783 157.125 177.509C148.085 165.735 131.162 132.854 130.447 131.463C130.428 131.426 130.408 131.387 130.392 131.348C117.673 101.976 96.3532 54.4467 92.1687 49.3794C82.8807 45.5314 73.2827 46.2467 65.7729 51.3452C59.7612 55.4256 56.3244 61.5606 56.8029 67.3562C56.8057 67.3849 56.8057 67.4136 56.8084 67.4397C57.5833 88.2151 79.5554 156.084 86.2713 176.392C87.8945 181.3 87.541 186.508 85.2734 191.061C84.4278 192.76 83.5088 193.977 82.4919 194.731C84.9281 196.619 87.1685 198.582 89.2159 200.618C89.2757 200.671 89.3301 200.725 89.3818 200.783C98.3299 209.737 103.542 220.094 104.923 231.719C105.946 240.326 104.845 249.654 101.655 259.438C99.839 265.009 97.343 270.74 94.2107 276.548C96.7149 278.439 101.943 282.939 107.186 290.894C113.668 300.731 121.42 318.003 121.531 344.412C121.536 345.492 120.626 346.372 119.5 346.378C119.217 346.378 118.945 346.325 118.701 346.223C117.969 345.928 117.455 345.237 117.453 344.427C117.346 319.091 110.013 302.587 103.882 293.204C99.2952 286.187 94.6811 281.997 92.2449 280.065C91.5923 281.188 90.9207 282.313 90.2219 283.438C81.6354 297.292 72.6492 306.487 72.2712 306.871C71.499 307.657 70.2075 307.691 69.3891 306.949C68.5707 306.208 68.5326 304.968 69.3048 304.182C69.3945 304.091 78.408 294.862 86.7634 281.357C94.401 269.014 103.047 250.46 100.869 232.149C99.684 222.182 95.4125 213.194 88.1365 205.281L74.131 226.813C71.6431 230.638 67.7523 233.296 63.1762 234.295C59.5627 235.086 55.8676 234.768 52.5205 233.413C52.2568 233.306 51.9985 233.191 51.7402 233.074C39.3743 252.578 28.6996 271.34 32.0928 281.464C38.4879 300.535 44.8857 339.326 44.7742 358.324C44.7252 366.727 50.8348 376.535 62.4476 386.688C72.8177 395.758 86.796 404.42 101.805 411.077C131.113 424.078 137.113 472.959 133.348 510.868C132.113 523.287 135.947 531.729 144.145 534.617C149.447 536.491 156.157 535.938 163.036 533.061C170.195 530.066 176.737 524.85 181.452 518.373C186.651 511.236 192.45 507.276 199.185 506.273C212.554 504.281 226.348 514.397 240.951 525.112C242.343 526.132 243.738 527.156 245.133 528.169C253.453 534.207 263.962 534.721 273.247 529.547C285.543 522.694 292.182 508.544 290.162 493.494C286.103 463.234 291.734 454.309 297.963 447.975Z" fill="#F5DDF2"/>
<path d="M86.8341 178.462C89.6917 171.935 90.0153 162.396 90.0153 162.396C90.0153 162.396 88.422 157.572 82.9976 143.702C77.5705 129.829 71.703 111.724 76.1485 109.468C80.594 107.213 81.339 104.934 76.9805 106.119C72.622 107.304 71.499 106.357 75.621 103.97C79.7403 101.584 85.9096 99.7803 81.214 99.1068C76.5183 98.4333 71.6866 103.605 68.0323 93.2773C64.378 82.9496 62.105 65.6855 70.0634 57.4777C74.7808 52.6115 74.6367 49.4918 73.7368 47.7584C70.9172 48.4815 68.2363 49.6772 65.7783 51.3454C59.7666 55.4258 56.3298 61.5608 56.8084 67.3563C56.8111 67.3851 56.8111 67.4138 56.8138 67.4399C57.5887 88.2153 79.5608 156.084 86.2767 176.392C86.4997 177.076 86.6845 177.768 86.8341 178.462Z" fill="#FFFCFA"/>
<path d="M290.162 493.492C286.1 463.235 291.734 454.309 297.963 447.975C299.059 445.647 306.476 429.68 313.494 409.103C317.545 397.227 321.942 382.355 324.614 367.388C313.516 355.705 301.987 346.949 290.63 342.929C261.719 332.695 161.114 328.333 161.114 328.333C161.114 328.333 135.721 334.272 155.298 354.98C174.872 375.687 235.658 378.919 254.446 413.071C273.234 447.224 228.599 451.515 205.512 433.565C182.423 415.614 184.628 442.068 150.711 431.28C121.115 421.869 112.151 408.088 81.1786 400.269C87.628 404.216 94.5995 407.876 101.808 411.077C131.115 424.078 137.116 472.959 133.35 510.868C132.116 523.287 135.95 531.73 144.147 534.617C149.45 536.491 156.16 535.938 163.039 533.061C170.198 530.067 176.74 524.851 181.455 518.374C182.197 517.353 182.953 516.4 183.722 515.507C194.938 475.178 208.06 439.232 206.945 463.517C205.466 495.729 223.705 446.339 224.366 463.198C225.024 480.055 277.084 438.462 277.019 489.312C276.991 509.484 272.347 522.566 267.081 532.106C269.172 531.518 271.238 530.664 273.247 529.545C285.543 522.692 292.185 508.542 290.162 493.492Z" fill="#FF99CB"/>
<path d="M103.928 400.54C94.9285 394.807 88.1093 396.345 72.1978 387.691C56.2891 379.036 77.1083 367.189 83.0465 347.842C88.9848 328.495 72.4969 323.785 65.9197 329.724C59.3425 335.663 56.1912 346.92 52.4145 337.159C48.6378 327.398 47.6481 319.746 45.6714 307.638C43.6947 295.533 37.5498 275.716 40.6685 268.623C43.7845 261.527 51.5879 243.182 56.2891 242.383C60.9929 241.584 67.4613 241.133 74.2235 232.442C79.9279 225.111 83.1662 216.342 82.0351 214.666L74.1337 226.813C71.6459 230.638 67.755 233.296 63.179 234.295C59.5654 235.086 55.8703 234.768 52.5233 233.413C52.2595 233.306 52.0012 233.191 51.7429 233.074C39.377 252.578 28.7023 271.34 32.0956 281.464C38.4906 300.535 44.8884 339.326 44.7769 358.324C44.7279 366.727 50.8375 376.535 62.4503 386.688C71.3821 394.499 82.9867 402.005 95.6245 408.192C106.196 409.993 110.318 404.61 103.928 400.54Z" fill="#FFFCFA"/>
<path d="M172.708 17.3235C169.119 55.5405 180.125 132.186 180.237 132.956C180.239 132.974 180.242 132.993 180.245 133.011C184.163 134.71 189.908 137.303 187.344 126.435C184.78 115.564 181.27 75.7206 183.268 74.3788C185.267 73.0369 201.387 73.4833 199.104 70.9615C196.82 68.4396 190.672 70.9275 184.361 69.8467C178.053 68.7659 178.866 61.2316 185.223 59.8715C191.58 58.514 198.388 55.2481 190.574 56.1383C182.76 57.0285 177.955 56.3132 177.787 51.4522C177.618 46.5912 176.245 26.988 179.557 18.8664C182.327 12.0735 194.718 6.60165 198.957 5.09532C194.691 4.38262 190.446 4.55492 186.452 5.67227C179.962 7.48404 174.964 11.7237 172.708 17.3235Z" fill="#FFFCFA"/>
<path d="M114.271 170.99C114.271 170.99 121.846 168.897 130.468 160.344C132.885 157.945 135.463 152.387 137.763 145.297C133.717 137.83 130.735 132.032 130.444 131.465C130.425 131.429 130.406 131.39 130.389 131.351C117.673 101.976 96.3532 54.4467 92.1687 49.3795C89.1208 48.1159 86.0402 47.3484 83.0112 47.0612C79.0632 49.5387 76.0914 58.112 83.0901 84.6282C95.2928 130.862 114.271 170.99 114.271 170.99Z" fill="#FF99CB"/>
<path d="M240.34 173.343C234.771 131.708 219.403 22.6206 214.417 11.6951C213.642 11.1443 212.859 10.6273 212.068 10.1392C208.449 10.8806 197.749 14.2117 196.907 27.7374C195.89 44.0382 218.8 163.795 221.353 171.097C223.409 176.977 234.575 185.346 240.802 174.35C240.554 174.066 240.391 173.718 240.34 173.343Z" fill="#FF99CB"/>
<path d="M301.152 450.437C301.307 450.28 301.438 450.1 301.53 449.902C301.612 449.732 309.717 432.742 317.355 410.364C327.638 380.229 332.236 355.183 331.018 335.919C328.168 290.862 342.91 222.626 343.06 221.942C343.248 221.078 342.813 220.198 341.991 219.796L244.244 171.815C243.39 165.479 238.705 130.841 233.469 95.5196C221.761 16.5377 218.805 11.2329 217.835 9.48902C217.696 9.24101 217.503 9.02433 217.269 8.85203C207.263 1.56316 195.618 -0.96393 185.313 1.91298C177.477 4.10069 171.454 9.30628 168.79 16.1983C168.727 16.3602 168.686 16.5273 168.67 16.6996C164.986 55.0079 175.927 131.643 176.191 133.47C179.714 164.244 174.967 177.462 169.347 179.569C166.633 180.587 163.289 178.947 160.402 175.188C151.744 163.91 134.927 131.343 134.125 129.787C133.601 128.578 125.378 109.609 116.653 90.2958C98.3653 49.8049 95.8094 47.3196 94.8469 46.3824C94.6675 46.2101 94.4581 46.0691 94.227 45.9699C83.4762 41.3726 72.2413 42.1584 63.4182 48.1472C56.251 53.0108 52.1616 60.4693 52.7354 67.6225C53.5592 88.9435 75.6346 157.164 82.3858 177.577C83.6937 181.532 83.4136 185.722 81.5973 189.372C80.7653 191.045 80.1155 191.565 79.8844 191.708C79.4222 191.593 78.9382 191.64 78.5167 191.828C77.6793 191.254 76.8228 190.685 75.9473 190.126C75.4606 189.815 74.8624 189.721 74.2969 189.862C73.734 190.006 73.2609 190.372 72.9972 190.873C68.0351 200.292 61.1696 210.949 54.5299 221.253C38.6646 245.876 23.6803 269.132 28.2183 282.66C34.5127 301.435 40.8153 339.608 40.7039 358.298C40.6468 367.842 47.2185 378.658 59.7068 389.578C70.3788 398.908 84.7214 407.805 100.1 414.627C112.338 420.057 121.373 433.468 126.224 453.411C131.624 475.598 130.463 498.697 129.291 510.492C128.557 517.867 129.454 524.054 131.953 528.884C134.128 533.087 137.546 536.209 141.874 537.961C142.16 538.076 142.448 538.185 142.739 538.29C155.755 542.89 174.23 535.126 184.799 520.613C189.326 514.395 194.239 510.97 199.816 510.139C211.467 508.403 224.589 518.029 238.48 528.218C239.877 529.244 241.278 530.27 242.681 531.288C252.355 538.308 264.549 538.922 275.3 532.93C281.611 529.414 286.948 523.783 290.336 517.076C294.012 509.795 295.353 501.467 294.213 492.99C289.999 461.637 296.712 454.896 301.152 450.437ZM57.9966 223.315C64.223 213.651 70.648 203.681 75.5721 194.627C79.172 197.057 82.3967 199.631 85.2462 202.339L70.6752 224.738C68.7665 227.67 65.7837 229.708 62.2735 230.476C59.424 231.1 56.5093 230.823 53.8855 229.708C55.2504 227.576 56.6235 225.443 57.9966 223.315ZM273.247 529.544C263.962 534.719 253.453 534.204 245.133 528.166C243.738 527.153 242.343 526.13 240.951 525.109C226.348 514.397 212.554 504.279 199.185 506.27C192.45 507.276 186.651 511.233 181.452 518.371C176.734 524.848 170.195 530.064 163.036 533.058C156.157 535.935 149.447 536.488 144.145 534.614C135.95 531.724 132.113 523.284 133.348 510.865C137.113 472.956 131.113 424.075 101.805 411.074C86.796 404.417 72.8177 395.755 62.4476 386.685C50.8375 376.533 44.7252 366.725 44.7742 358.321C44.8857 339.321 38.4852 300.532 32.0928 281.462C28.6996 271.338 39.3743 252.575 51.7402 233.071C51.9985 233.191 52.2568 233.306 52.5205 233.41C55.8676 234.765 59.56 235.084 63.1762 234.293C67.755 233.29 71.6459 230.635 74.131 226.811L88.1365 205.278C95.4152 213.191 99.684 222.179 100.869 232.147C103.047 250.455 94.401 269.011 86.7634 281.354C78.408 294.859 69.3946 304.088 69.3048 304.179C68.5326 304.965 68.568 306.205 69.3891 306.947C70.2075 307.688 71.499 307.654 72.2712 306.868C72.6492 306.484 81.6354 297.29 90.2219 283.435C90.9207 282.307 91.5923 281.185 92.2449 280.062C94.6784 281.994 99.2952 286.184 103.882 293.202C110.016 302.584 117.349 319.089 117.453 344.425C117.455 345.234 117.969 345.926 118.701 346.221C118.945 346.32 119.217 346.375 119.5 346.375C120.626 346.37 121.536 345.49 121.531 344.409C121.422 318 113.67 300.728 107.186 290.891C101.943 282.937 96.7149 278.436 94.2107 276.546C97.343 270.74 99.839 265.007 101.655 259.436C104.845 249.651 105.943 240.323 104.923 231.716C103.545 220.091 98.3299 209.735 89.3818 200.78C89.3301 200.723 89.2757 200.668 89.2159 200.616C87.1685 198.579 84.9254 196.616 82.4919 194.729C83.5088 193.972 84.4251 192.758 85.2734 191.058C87.5383 186.505 87.8945 181.297 86.2713 176.389C79.5581 156.084 57.586 88.2151 56.8111 67.4397C56.8111 67.411 56.8084 67.3823 56.8057 67.3562C56.3271 61.5606 59.7639 55.4256 65.7756 51.3452C73.2854 46.2467 82.8834 45.5313 92.1715 49.3794C96.356 54.4492 117.673 101.976 130.389 131.35C130.406 131.39 130.425 131.426 130.444 131.465C131.159 132.859 148.082 165.738 157.122 177.512C161.171 182.785 166.299 184.918 170.834 183.216C176.264 181.18 184.707 171.948 180.245 133.013C180.242 132.995 180.239 132.977 180.237 132.959C180.125 132.186 169.119 55.5431 172.708 17.3261C174.967 11.7263 179.962 7.48667 186.452 5.67489C195.373 3.18436 205.542 5.37728 214.417 11.6976C219.403 22.6231 234.771 131.708 240.34 173.345C240.427 173.985 240.834 174.546 241.433 174.838L338.759 222.61C336.621 232.854 324.299 294.28 326.947 336.159C328.424 359.525 320.446 388.724 313.494 409.103C306.476 429.68 299.059 445.646 297.963 447.975C291.734 454.309 286.1 463.234 290.162 493.491C292.185 508.542 285.543 522.691 273.247 529.544Z" fill="#FFCADD"/>
<path d="M392.056 248.98C366.011 238.433 335.882 250.197 324.897 275.207C313.912 300.214 326.164 329.142 352.212 339.689C376.221 349.411 403.699 340.175 416.453 319.083C416.459 319.076 416.462 319.068 416.467 319.063C416.66 318.741 416.85 318.418 417.038 318.089C417.071 318.031 417.106 317.971 417.139 317.914C417.326 317.585 417.508 317.253 417.691 316.917C417.696 316.906 417.701 316.896 417.707 316.885C417.889 316.543 418.069 316.199 418.245 315.851C418.286 315.768 418.327 315.684 418.37 315.601C418.504 315.335 418.631 315.068 418.759 314.799C418.805 314.703 418.852 314.604 418.898 314.507C419.058 314.162 419.219 313.815 419.374 313.463C419.534 313.1 419.686 312.734 419.836 312.371C419.898 312.22 419.958 312.066 420.018 311.912C420.1 311.706 420.181 311.5 420.26 311.293C420.339 311.09 420.412 310.883 420.488 310.68C420.543 310.531 420.597 310.385 420.649 310.236C420.736 309.991 420.823 309.745 420.904 309.497C420.937 309.403 420.967 309.309 421 309.215C421.097 308.923 421.19 308.628 421.282 308.335C421.29 308.312 421.296 308.291 421.304 308.268C422.74 303.6 423.436 298.765 423.395 293.933C423.392 293.677 423.39 293.421 423.384 293.168C423.384 293.113 423.381 293.061 423.379 293.006C422.821 274.311 411.143 256.71 392.056 248.98Z" fill="url(#paint1_linear_24_141)"/>
<path d="M400.508 274.187C403.141 266.066 398.419 257.434 389.961 254.906C381.503 252.378 372.512 256.912 369.88 265.033C367.247 273.154 371.969 281.786 380.427 284.314C388.885 286.842 397.876 282.308 400.508 274.187Z" fill="url(#paint2_linear_24_141)"/>
<path d="M375.689 330.658C379.956 323.205 377.123 313.842 369.36 309.745C361.598 305.648 351.846 308.368 347.579 315.822C343.312 323.275 346.145 332.638 353.908 336.735C361.67 340.832 371.422 338.111 375.689 330.658Z" fill="url(#paint3_linear_24_141)"/>
<path d="M348.62 300.233C357.309 298.578 362.956 290.474 361.233 282.131C359.51 273.788 351.069 268.366 342.38 270.021C333.691 271.675 328.044 279.779 329.767 288.122C331.49 296.465 339.931 301.887 348.62 300.233Z" fill="url(#paint4_linear_24_141)"/>
<path d="M404.473 322.852C413.162 321.197 418.809 313.093 417.086 304.75C415.363 296.408 406.923 290.986 398.234 292.64C389.545 294.294 383.897 302.398 385.62 310.741C387.343 319.084 395.784 324.506 404.473 322.852Z" fill="url(#paint5_linear_24_141)"/>
<path d="M320.074 343.469C324.248 325.191 312.2 307.125 293.164 303.117C274.128 299.109 255.312 310.677 251.137 328.955C246.963 347.232 259.011 365.298 278.047 369.307C297.083 373.315 315.899 361.747 320.074 343.469Z" fill="#FFF6E1"/>
<path d="M183.259 308.634C197.039 295.403 197.039 273.951 183.259 260.72C169.478 247.489 147.136 247.489 133.356 260.72C119.576 273.951 119.576 295.403 133.356 308.634C147.136 321.865 169.478 321.865 183.259 308.634Z" fill="#FFF6E1"/>
<path d="M350.627 343.297C322.507 331.909 309.279 300.684 321.14 273.685C333 246.686 365.521 233.985 393.641 245.372C406.641 250.635 416.453 260.141 422.079 271.507C423.778 258.95 421.5 250.883 419.202 246.25C417.217 242.25 414.898 240.094 413.887 239.284L359.01 217.063L359.023 217.034C358.893 216.997 358.765 216.958 358.634 216.909L279.137 187.281L273.867 185.145L196.366 151.199L141.08 128.81C139.778 128.683 136.551 128.589 132.176 130.019C127.116 131.674 119.511 135.739 111.329 145.67C123.733 141.605 137.671 141.72 150.67 146.983C178.79 158.371 192.018 189.596 180.158 216.595C168.297 243.595 135.776 256.295 107.656 244.908C87.1549 236.606 74.5742 217.757 73.8537 197.689C56.0715 223.464 22.261 273.732 13.0437 296.337C6.59968 312.142 3.96499 325.819 5.21572 336.984C6.41751 347.735 11.192 355.572 19.4034 360.274C27.9056 365.143 39.5347 366.033 51.3106 362.715C60.6992 360.07 74.6721 353.541 87.9135 337.449C98.1668 324.989 115.25 320.138 138.69 323.036C157.28 325.333 179.655 332.293 207.086 344.315C235.201 354.786 256.009 365.312 270.697 376.491C289.216 390.586 297.522 405.717 295.388 421.464C292.628 441.801 297.512 455.966 302.09 464.266C307.836 474.677 316.615 482.052 326.183 484.501C335.42 486.863 344.596 484.678 353.455 478C362.656 471.064 371.019 459.708 378.309 444.245C388.736 422.128 402.63 363.796 409.438 333.578C393.967 347.093 371.128 351.599 350.627 343.297ZM301.886 233.779L316.085 239.527C321.316 241.644 323.777 247.453 321.569 252.476C319.364 257.499 313.314 259.861 308.083 257.742L293.884 251.993C288.653 249.876 286.192 244.067 288.4 239.044C290.605 234.024 296.655 231.661 301.886 233.779ZM209.161 196.23L223.36 201.979C228.591 204.096 231.052 209.904 228.844 214.927C226.639 219.95 220.589 222.313 215.358 220.193L201.159 214.444C195.928 212.327 193.467 206.518 195.675 201.496C197.88 196.475 203.93 194.113 209.161 196.23ZM143.014 319.504C123.013 311.406 113.605 289.194 122.039 269.991C130.474 250.787 153.607 241.754 173.608 249.852C193.608 257.95 203.016 280.162 194.582 299.365C186.145 318.569 163.012 327.602 143.014 319.504ZM240.913 267.534L240.826 267.5L240.742 267.466C231.767 263.832 227.544 253.865 231.329 245.247C235.114 236.629 245.495 232.575 254.47 236.209L254.563 236.246L254.641 236.277C263.617 239.911 267.839 249.878 264.055 258.496C260.27 267.114 249.889 271.168 240.913 267.534ZM270.311 371.053C250.31 362.955 240.902 340.744 249.337 321.54C257.771 302.336 280.904 293.303 300.905 301.402C320.906 309.5 330.313 331.711 321.879 350.915C313.445 370.116 290.312 379.151 270.311 371.053Z" fill="#2E2594"/>
<path d="M395.247 278.412C401.51 272.398 401.51 262.647 395.247 256.633C388.983 250.619 378.828 250.619 372.564 256.633C366.3 262.647 366.3 272.398 372.564 278.412C378.828 284.426 388.983 284.426 395.247 278.412Z" fill="#FFCADD"/>
<path d="M362.174 336.452C370.978 335.503 377.313 327.882 376.324 319.429C375.336 310.977 367.398 304.894 358.594 305.843C349.791 306.792 343.456 314.414 344.445 322.866C345.433 331.319 353.371 337.402 362.174 336.452Z" fill="#FFCADD"/>
<path d="M346.584 298.261C355.345 297.002 361.384 289.163 360.073 280.751C358.762 272.34 350.598 266.541 341.837 267.8C333.076 269.059 327.037 276.898 328.348 285.31C329.659 293.721 337.824 299.52 346.584 298.261Z" fill="#FFCADD"/>
<path d="M402.438 320.88C411.199 319.622 417.239 311.782 415.928 303.37C414.616 294.959 406.452 289.16 397.691 290.419C388.93 291.678 382.891 299.517 384.202 307.929C385.513 316.34 393.678 322.139 402.438 320.88Z" fill="#FFCADD"/>
<path d="M302.877 352.812C312.416 343.652 312.416 328.802 302.877 319.643C293.337 310.484 277.871 310.484 268.332 319.643C258.792 328.802 258.792 343.652 268.332 352.812C277.871 361.971 293.337 361.971 302.877 352.812Z" fill="#FFCADD"/>
<path d="M286.304 352.557C295.704 352.189 303.019 344.573 302.642 335.547C302.266 326.522 294.34 319.503 284.94 319.871C275.539 320.239 268.224 327.855 268.601 336.881C268.978 345.907 276.904 352.925 286.304 352.557Z" fill="url(#paint6_linear_24_141)"/>
<path d="M274.544 335.703C277.386 329.234 285.148 326.203 291.886 328.931C295.103 330.233 297.501 332.617 298.822 335.452C298.523 330.784 295.543 326.453 290.752 324.514C284.015 321.785 276.252 324.816 273.411 331.285C271.926 334.664 272.081 338.311 273.527 341.415C273.405 339.522 273.723 337.572 274.544 335.703Z" fill="#FFF6E1"/>
<path d="M184.891 284.628L177.284 281.548C174.312 280.344 172.92 277.058 174.173 274.204L177.382 266.9C178.635 264.046 177.243 260.759 174.271 259.556L165.905 256.167C162.933 254.964 159.51 256.3 158.256 259.154L155.048 266.458C153.794 269.312 150.371 270.648 147.399 269.445L139.792 266.364C136.82 265.161 133.397 266.498 132.143 269.351L128.614 277.384C127.361 280.237 128.753 283.524 131.724 284.728L139.332 287.808C142.304 289.012 143.696 292.298 142.443 295.152L139.234 302.456C137.981 305.31 139.373 308.597 142.345 309.8L150.711 313.189C153.683 314.392 157.106 313.055 158.36 310.202L161.568 302.898C162.821 300.044 166.245 298.708 169.217 299.911L176.824 302.992C179.796 304.195 183.219 302.858 184.473 300.005L188.002 291.972C189.253 289.119 187.861 285.829 184.891 284.628Z" fill="#FFCADD"/>
<path d="M202.744 210.836L216.943 216.585C220.102 217.864 223.754 216.436 225.086 213.405C226.418 210.372 224.931 206.866 221.774 205.586L207.576 199.838C204.416 198.559 200.765 199.987 199.433 203.018C198.1 206.051 199.588 209.557 202.744 210.836Z" fill="url(#paint7_linear_24_141)"/>
<path d="M81.3581 178.172C81.2466 178.449 81.1378 178.723 81.0318 179C80.9992 179.086 80.9638 179.172 80.9312 179.258C80.7952 179.621 80.662 179.987 80.5342 180.35C80.5315 180.36 80.5261 180.37 80.5233 180.381C80.3983 180.739 80.2786 181.099 80.1644 181.459C80.1454 181.522 80.1237 181.584 80.1046 181.647C79.9904 182.005 79.8817 182.362 79.7783 182.72C79.7756 182.728 79.7729 182.736 79.7702 182.743C72.9428 206.239 85.2326 231.578 109.241 241.3C135.286 251.847 165.415 240.083 176.4 215.073C187.385 190.064 175.133 161.138 149.085 150.591C129.995 142.861 108.716 147.116 94.3847 159.786C94.3439 159.822 94.3031 159.856 94.2651 159.89C94.0693 160.065 93.8763 160.242 93.6805 160.423C90.0479 163.769 86.932 167.62 84.4523 171.865C84.4414 171.886 84.4278 171.904 84.4169 171.925C84.2619 172.194 84.107 172.463 83.9574 172.734C83.9085 172.82 83.8622 172.907 83.8133 172.995C83.6882 173.225 83.5632 173.455 83.4408 173.687C83.3674 173.826 83.294 173.967 83.2233 174.108C83.1227 174.303 83.0221 174.497 82.9242 174.692C82.8263 174.891 82.7284 175.092 82.6333 175.29C82.5626 175.439 82.4892 175.588 82.4185 175.737C82.2499 176.094 82.0868 176.454 81.9263 176.817C81.7713 177.167 81.6245 177.52 81.4804 177.872C81.4369 177.974 81.3988 178.073 81.3581 178.172ZM141.733 167.328C158.167 173.982 165.899 192.236 158.969 208.014C152.038 223.793 133.027 231.218 116.593 224.563C100.16 217.909 92.427 199.655 99.3577 183.876C106.288 168.098 125.3 160.673 141.733 167.328Z" fill="url(#paint8_linear_24_141)"/>
<path d="M295.47 248.385L309.668 254.134C312.825 255.413 316.479 253.985 317.812 250.954C319.144 247.92 317.657 244.414 314.5 243.135L300.301 237.386C297.145 236.107 293.49 237.535 292.158 240.566C290.826 243.6 292.313 247.106 295.47 248.385Z" fill="url(#paint9_linear_24_141)"/>
<path d="M200.218 204.727C201.551 201.694 205.202 200.269 208.362 201.548L222.56 207.296C223.757 207.782 224.711 208.586 225.366 209.562C224.89 207.837 223.618 206.333 221.774 205.586L207.576 199.838C204.416 198.559 200.765 199.987 199.433 203.018C198.606 204.902 198.867 206.967 199.938 208.57C199.598 207.338 199.661 205.991 200.218 204.727Z" fill="#FFF6E1"/>
<path d="M292.944 242.276C294.276 239.243 297.928 237.817 301.087 239.096L315.286 244.845C316.482 245.331 317.436 246.135 318.092 247.111C317.616 245.385 316.343 243.882 314.503 243.135L300.304 237.386C297.147 236.107 293.493 237.535 292.161 240.566C291.334 242.451 291.595 244.516 292.666 246.119C292.324 244.887 292.389 243.54 292.944 242.276Z" fill="#FFF6E1"/>
<path d="M155.526 205.742C161.156 191.76 153.916 176.044 139.354 170.638C124.792 165.233 108.423 172.185 102.793 186.167C97.1631 200.148 104.404 215.865 118.966 221.27C133.528 226.676 149.897 219.724 155.526 205.742Z" fill="#FFCADD"/>
<path d="M149.273 204.804C154.368 194.144 149.498 181.538 138.396 176.646C127.294 171.755 114.165 176.43 109.07 187.09C103.975 197.749 108.845 210.355 119.947 215.247C131.049 220.139 144.178 215.463 149.273 204.804Z" fill="url(#paint10_linear_24_141)"/>
<path d="M113.35 194.632C117.36 185.503 128.32 181.221 137.829 185.072C142.369 186.91 145.754 190.275 147.62 194.28C147.195 187.693 142.992 181.579 136.23 178.841C126.722 174.99 115.761 179.269 111.751 188.401C109.657 193.17 109.875 198.318 111.914 202.696C111.743 200.021 112.191 197.266 113.35 194.632Z" fill="#FFF6E1"/>
<path d="M411.244 233.285L412.511 230.398C412.815 229.706 412.476 228.904 411.755 228.612L370.065 211.729C368.045 210.912 365.709 211.823 364.858 213.763L364.529 214.509C364.461 214.664 364.385 214.81 364.301 214.953L411.037 233.88C411.092 233.679 411.157 233.481 411.244 233.285Z" fill="url(#paint11_linear_24_141)"/>
<path d="M194.008 145.458L194.337 144.712C195.188 142.772 194.239 140.53 192.219 139.712L150.529 122.829C149.808 122.537 148.974 122.863 148.669 123.555L147.402 126.443C147.315 126.638 147.212 126.821 147.103 126.999L193.84 145.926C193.886 145.769 193.94 145.612 194.008 145.458Z" fill="url(#paint12_linear_24_141)"/>
<path d="M253.056 239.885L252.98 239.854L252.888 239.814C245.984 237.018 238.001 240.138 235.089 246.764C232.177 253.392 235.426 261.057 242.327 263.853L242.411 263.887L242.498 263.921C249.402 266.717 257.385 263.597 260.297 256.971C263.209 250.346 259.96 242.681 253.056 239.885Z" fill="url(#paint13_linear_24_141)"/>
<path d="M201.159 214.444L215.358 220.193C220.589 222.31 226.639 219.948 228.844 214.927C231.049 209.904 228.588 204.096 223.36 201.979L209.161 196.23C203.93 194.113 197.88 196.475 195.675 201.496C193.47 206.518 195.931 212.327 201.159 214.444ZM207.576 199.838L221.774 205.586C224.934 206.866 226.418 210.372 225.086 213.405C223.754 216.439 220.102 217.864 216.943 216.585L202.744 210.836C199.585 209.557 198.1 206.051 199.433 203.018C200.765 199.987 204.416 198.559 207.576 199.838Z" fill="#FFCADD"/>
<path d="M116.593 224.563C133.027 231.218 152.038 223.795 158.969 208.014C165.899 192.236 158.169 173.982 141.733 167.328C125.3 160.673 106.288 168.095 99.3577 183.876C92.427 199.655 100.157 217.909 116.593 224.563ZM140.148 170.936C154.51 176.752 161.266 192.703 155.211 206.492C149.153 220.282 132.54 226.769 118.179 220.955C103.817 215.139 97.0602 199.188 103.115 185.398C109.173 171.609 125.786 165.122 140.148 170.936Z" fill="#FFCADD"/>
<path d="M254.641 236.277L254.563 236.246L254.47 236.209C245.495 232.575 235.114 236.629 231.329 245.247C227.544 253.865 231.767 263.832 240.742 267.466L240.826 267.5L240.913 267.534C249.889 271.168 260.27 267.114 264.055 258.496C267.839 249.878 263.617 239.911 254.641 236.277ZM242.498 263.924L242.411 263.89L242.327 263.856C235.424 261.06 232.177 253.395 235.089 246.767C238.001 240.138 245.984 237.021 252.888 239.817L252.98 239.856L253.056 239.888C259.96 242.683 263.206 250.348 260.294 256.977C257.385 263.602 249.402 266.72 242.498 263.924Z" fill="#FFCADD"/>
<path d="M300.905 301.402C280.904 293.303 257.771 302.336 249.337 321.54C240.902 340.744 250.31 362.955 270.311 371.053C290.312 379.151 313.445 370.119 321.879 350.915C330.313 331.711 320.906 309.5 300.905 301.402ZM271.896 367.445C253.97 360.185 245.536 340.276 253.097 323.062C260.659 305.85 281.393 297.752 299.322 305.01C317.251 312.27 325.683 332.178 318.124 349.393C310.56 366.607 289.825 374.703 271.896 367.445Z" fill="#FFCADD"/>
<path d="M293.884 251.993L308.083 257.741C313.314 259.859 319.364 257.496 321.569 252.476C323.774 247.453 321.314 241.644 316.085 239.527L301.886 233.779C296.655 231.661 290.605 234.024 288.4 239.044C286.195 244.067 288.656 249.876 293.884 251.993ZM300.301 237.386L314.5 243.135C317.657 244.414 319.144 247.92 317.811 250.954C316.479 253.987 312.828 255.413 309.668 254.134L295.47 248.385C292.313 247.106 290.826 243.6 292.158 240.566C293.49 237.535 297.145 236.107 300.301 237.386Z" fill="#FFCADD"/>
<path d="M173.608 249.852C153.607 241.754 130.474 250.787 122.039 269.991C113.605 289.194 123.013 311.406 143.014 319.504C163.014 327.602 186.148 318.569 194.582 299.365C203.016 280.164 193.606 257.953 173.608 249.852ZM144.599 315.896C126.67 308.636 118.238 288.727 125.797 271.513C133.359 254.298 154.094 246.202 172.022 253.46C189.949 260.72 198.383 280.629 190.824 297.843C183.263 315.058 162.525 323.156 144.599 315.896Z" fill="#FFCADD"/>
<path d="M383.268 275.546C383.067 275.52 382.768 275.455 382.371 275.35C381.974 275.246 381.593 275.118 381.234 274.974C380.481 274.669 379.967 274.319 379.698 273.922C379.429 273.525 379.467 272.933 379.812 272.147L381.213 268.959C381.058 268.21 380.9 267.388 380.734 266.487C380.568 265.586 380.422 264.673 380.286 263.749C380.152 262.822 380.046 261.924 379.967 261.047C379.889 260.172 379.859 259.386 379.875 258.687C380.212 258.488 380.617 258.347 381.09 258.261C381.563 258.175 382.069 258.24 382.61 258.459C383.249 258.718 383.714 259.055 384.005 259.47C384.296 259.885 384.47 260.511 384.527 261.349L384.837 266.119L384.984 266.179C385.427 265.785 385.824 265.422 386.172 265.09C386.52 264.759 386.865 264.425 387.205 264.091C387.545 263.756 387.901 263.409 388.271 263.049C388.641 262.689 389.065 262.274 389.544 261.798C389.9 261.778 390.278 261.798 390.672 261.866C391.066 261.934 391.428 262.033 391.757 262.167C392.331 262.399 392.755 262.741 393.027 263.195C393.301 263.649 393.309 264.166 393.054 264.748C392.97 264.936 392.828 265.148 392.63 265.383C392.428 265.618 392.064 265.947 391.531 266.37C390.998 266.793 390.245 267.354 389.272 268.054C388.298 268.753 386.999 269.654 385.375 270.758L383.268 275.546Z" fill="#FFF6E1"/>
<path d="M396.882 313.241C396.602 313.129 396.279 312.988 395.909 312.818C395.539 312.648 395.164 312.46 394.783 312.251C394.402 312.043 394.03 311.821 393.668 311.591C393.307 311.361 392.989 311.116 392.717 310.857C391.961 310.163 391.762 309.406 392.121 308.586L396.964 297.562C397.108 297.23 397.315 297.013 397.584 296.909C397.85 296.804 398.174 296.763 398.549 296.786C399.188 296.823 399.946 296.966 400.819 297.22C401.692 297.473 402.573 297.776 403.457 298.136C405.556 298.984 407.021 299.979 407.853 301.112C408.688 302.248 408.794 303.522 408.171 304.939C407.861 305.647 407.38 306.171 406.728 306.511C406.075 306.85 405.338 306.991 404.514 306.936C405.238 307.49 405.746 308.166 406.04 308.973C406.333 309.777 406.287 310.62 405.898 311.502C405.213 313.061 404.104 313.969 402.573 314.228C401.042 314.486 399.144 314.157 396.882 313.241ZM399.278 303.506L401.072 304.232C401.776 304.516 402.345 304.6 402.774 304.477C403.204 304.354 403.527 304.049 403.742 303.561C403.93 303.135 403.892 302.723 403.636 302.321C403.378 301.919 402.88 301.569 402.143 301.271C401.899 301.172 401.611 301.065 401.284 300.95C400.958 300.835 400.697 300.76 400.504 300.718L399.278 303.506ZM396.746 309.265C396.947 309.422 397.225 309.583 397.576 309.753C397.926 309.923 398.263 310.074 398.592 310.207C399.248 310.474 399.851 310.562 400.398 310.479C400.947 310.395 401.341 310.077 401.583 309.526C401.812 309.007 401.793 308.563 401.529 308.197C401.265 307.832 400.765 307.498 400.028 307.2L398.013 306.383L396.746 309.265Z" fill="#FFF6E1"/>
<path d="M339.805 274.849C339.985 274.661 340.197 274.489 340.439 274.327C340.684 274.168 340.956 274.04 341.257 273.948C341.559 273.857 341.883 273.813 342.228 273.813C342.576 273.815 342.929 273.888 343.288 274.034C343.764 274.228 344.131 274.51 344.392 274.886C344.653 275.259 344.849 275.799 344.985 276.502L345.67 280.089L350.26 277.219C350.418 277.209 350.63 277.225 350.891 277.266C351.152 277.308 351.399 277.373 351.628 277.467C352.381 277.773 352.895 278.185 353.169 278.705C353.444 279.224 353.471 279.736 353.248 280.237C353.055 280.679 352.761 281.023 352.373 281.274C351.984 281.524 351.475 281.809 350.853 282.133L347.013 284.083L348.604 291.207C348.218 291.737 347.731 292.082 347.149 292.244C346.567 292.405 345.907 292.338 345.167 292.04C344.691 291.847 344.332 291.567 344.088 291.199C343.843 290.831 343.661 290.299 343.544 289.602L342.881 285.774L337.812 289.006C337.674 288.97 337.546 288.931 337.429 288.892C337.309 288.852 337.195 288.811 337.078 288.764C336.143 288.385 335.534 287.926 335.251 287.385C334.968 286.845 334.944 286.307 335.178 285.772C335.379 285.315 335.653 284.96 336.01 284.704C336.363 284.448 336.828 284.169 337.407 283.866L341.388 281.725L339.805 274.849Z" fill="#FFF6E1"/>
<path d="M360.298 313.202C360.646 313.157 361.133 313.178 361.761 313.267C362.389 313.353 362.99 313.515 363.564 313.747C364.382 314.079 365.059 314.486 365.589 314.972C366.12 315.455 366.367 315.977 366.334 316.538C366.269 317.475 366.171 318.559 366.038 319.783C365.905 321.007 365.758 322.268 365.592 323.566C365.429 324.861 365.263 326.14 365.097 327.398C364.931 328.657 364.779 329.769 364.646 330.732C364.352 330.873 363.98 330.93 363.528 330.904C363.077 330.878 362.579 330.756 362.038 330.536C361.644 330.377 361.326 330.21 361.084 330.038C360.842 329.865 360.663 329.683 360.546 329.487C360.429 329.291 360.361 329.069 360.344 328.821C360.328 328.573 360.336 328.299 360.372 327.999L360.644 326.19L356.193 324.388C355.853 324.806 355.507 325.242 355.157 325.694C354.803 326.145 354.458 326.579 354.121 326.999C353.857 326.983 353.585 326.954 353.308 326.905C353.03 326.858 352.71 326.761 352.351 326.615C351.516 326.276 350.956 325.887 350.676 325.451C350.396 325.012 350.363 324.55 350.575 324.062C350.673 323.843 350.801 323.634 350.964 323.441C351.127 323.247 351.315 323.018 351.527 322.751C351.829 322.373 352.22 321.911 352.701 321.365C353.183 320.819 353.707 320.229 354.276 319.598C354.844 318.966 355.434 318.321 356.054 317.661C356.671 317.003 357.253 316.381 357.8 315.797C358.346 315.212 358.838 314.692 359.279 314.241C359.719 313.781 360.059 313.437 360.298 313.202ZM361.911 317.441C361.391 318.01 360.809 318.64 360.168 319.334C359.523 320.028 358.906 320.746 358.311 321.488L361.359 322.723C361.503 321.78 361.633 320.856 361.753 319.948C361.87 319.042 361.973 318.225 362.06 317.501L361.911 317.441Z" fill="#FFF6E1"/>
<path d="M47.7243 291.019C56.6453 270.709 70.2021 248.792 84.9634 227.905C78.1633 219.201 74.2452 208.628 73.8564 197.689C56.0715 223.464 22.261 273.732 13.0437 296.337C6.59968 312.142 3.96499 325.819 5.21572 336.985C6.41751 347.735 11.192 355.572 19.4034 360.274C27.9056 365.143 39.5347 366.033 51.3106 362.715C57.4664 360.981 65.5961 357.575 74.1963 350.899C49.3801 348.782 28.3026 335.233 47.7243 291.019Z" fill="url(#paint14_linear_24_141)"/>
<path d="M132.176 130.019C127.116 131.674 119.511 135.739 111.329 145.67C123.665 141.629 137.519 141.72 150.453 146.899C154.357 142.574 157.612 139.047 160.01 136.478L141.078 128.813C139.778 128.682 136.551 128.591 132.176 130.019Z" fill="url(#paint15_linear_24_141)"/>
<path d="M358.042 416.682C366.963 396.371 373.847 371.753 379.125 347.025C390.362 345.626 400.982 340.94 409.414 333.575C402.603 363.793 388.712 422.125 378.284 444.242C370.995 459.705 362.634 471.061 353.43 477.997C344.572 484.675 335.395 486.861 326.159 484.498C316.593 482.049 307.811 474.674 302.066 464.263C299.061 458.82 295.929 450.852 294.907 440.279C313.804 455.859 338.62 460.895 358.042 416.682Z" fill="url(#paint16_linear_24_141)"/>
<path d="M419.178 246.239C421.475 250.873 423.754 258.94 422.055 271.497C416.459 260.196 406.722 250.735 393.832 245.453C394.332 239.749 394.691 235.05 394.935 231.609L413.868 239.274C414.871 240.081 417.193 242.234 419.178 246.239Z" fill="url(#paint17_linear_24_141)"/>
<path d="M419.251 322.219C419.259 322.203 419.27 322.19 419.278 322.174C419.743 321.449 420.189 320.71 420.616 319.963C420.654 319.895 420.695 319.827 420.733 319.757C420.91 319.444 421.084 319.13 421.252 318.815C421.285 318.752 421.32 318.692 421.353 318.629C421.546 318.266 421.736 317.901 421.924 317.533C421.959 317.46 421.995 317.387 422.033 317.316C422.182 317.016 422.329 316.716 422.473 316.413C422.522 316.311 422.571 316.209 422.617 316.107C422.791 315.737 422.963 315.363 423.129 314.987C423.3 314.598 423.466 314.207 423.626 313.815C423.691 313.656 423.754 313.494 423.819 313.335C423.909 313.11 423.999 312.886 424.086 312.659C424.167 312.445 424.246 312.231 424.325 312.019C424.385 311.855 424.445 311.693 424.504 311.528C424.597 311.27 424.687 311.011 424.774 310.753C424.809 310.651 424.842 310.547 424.877 310.445C424.98 310.134 425.081 309.821 425.179 309.51C425.181 309.5 425.184 309.489 425.189 309.479C426.682 304.67 427.427 299.78 427.476 294.943C427.479 294.815 427.479 294.69 427.482 294.562C427.482 294.358 427.482 294.155 427.479 293.951C427.476 293.7 427.473 293.447 427.468 293.196C427.465 293.087 427.463 292.98 427.46 292.87C427.321 288.085 426.514 283.31 425.024 278.676C425.298 277.152 425.546 275.75 425.755 274.504C430.173 248.194 418.911 238.057 416.163 236.013L416.182 235.969L415.997 235.893C415.782 235.739 415.64 235.65 415.592 235.619L415.445 235.528L415.284 235.462C415.023 235.355 414.898 235.066 415.01 234.812L416.277 231.925C417.454 229.244 416.141 226.14 413.346 225.009L371.656 208.127C367.563 206.469 362.83 208.317 361.106 212.246L360.777 212.993C360.668 213.241 360.377 213.361 360.113 213.262L280.697 183.665L275.537 181.576L198.027 147.623C197.771 147.51 197.657 147.228 197.766 146.98L198.095 146.234C199.821 142.305 197.896 137.76 193.804 136.105L152.114 119.222C149.322 118.091 146.089 119.352 144.912 122.033L143.644 124.921C143.533 125.171 143.231 125.291 142.967 125.184L142.807 125.119L142.636 125.08C141.921 124.921 124.919 121.451 106.539 145.234C105.761 146.242 104.888 147.388 103.936 148.649C99.442 150.857 95.3146 153.635 91.6494 156.88C91.5651 156.953 91.4835 157.026 91.3993 157.102C91.2062 157.274 91.0159 157.446 90.8283 157.621C90.676 157.762 90.5237 157.903 90.3715 158.044C90.2763 158.133 90.1839 158.224 90.0887 158.313C86.5133 161.725 83.3864 165.652 80.8415 170.035C80.836 170.043 80.8306 170.051 80.8279 170.061C80.662 170.346 80.5016 170.633 80.3412 170.922C80.2895 171.016 80.2351 171.113 80.1835 171.207C80.0529 171.447 79.9224 171.69 79.7946 171.933C79.7131 172.087 79.6342 172.241 79.5527 172.397C79.4466 172.601 79.3433 172.805 79.24 173.011C79.1312 173.228 79.0279 173.444 78.9219 173.664C78.8457 173.82 78.7696 173.977 78.6962 174.134C78.5167 174.517 78.34 174.904 78.1687 175.295C78.0028 175.671 77.8451 176.05 77.6874 176.428C77.6439 176.533 77.6031 176.637 77.5596 176.742C77.4346 177.052 77.3122 177.363 77.1926 177.676C77.1654 177.752 77.1355 177.825 77.1056 177.901C76.9615 178.287 76.8201 178.673 76.6841 179.06C76.6624 179.125 76.6406 179.188 76.6189 179.253C76.502 179.592 76.3878 179.934 76.279 180.274C76.2545 180.347 76.2328 180.42 76.2083 180.49C75.9473 181.31 75.708 182.133 75.4905 182.96C75.4878 182.973 75.4823 182.989 75.4796 183.002C74.857 185.375 74.4029 187.787 74.1256 190.22C57.7356 213.81 19.2865 270.275 9.24254 294.906C2.55656 311.304 -0.162419 325.6 1.15629 337.402C2.48587 349.273 8.07066 358.345 17.3098 363.636C18.6393 364.396 20.0315 365.07 21.4807 365.657C30.3745 369.257 41.3972 369.586 52.4553 366.472C66.7354 362.449 80.1019 353.254 91.111 339.874C100.415 328.568 116.248 324.208 138.166 326.918C156.356 329.166 178.36 336.026 205.444 347.9L205.499 347.923L205.553 347.944C233.308 358.279 253.788 368.62 268.16 379.559C285.48 392.74 293.278 406.667 291.34 420.958C289.047 437.864 291.516 453.473 298.482 466.098C304.758 477.47 314.467 485.558 325.128 488.283C335.523 490.944 346.187 488.453 355.97 481.081C365.693 473.753 374.456 461.903 382.02 445.861C393.383 421.762 408.661 355.914 414.814 328.179C416.437 326.294 417.916 324.302 419.251 322.219ZM423.376 293.006C423.379 293.061 423.379 293.113 423.381 293.168C423.387 293.424 423.39 293.677 423.392 293.933C423.433 298.768 422.734 303.6 421.301 308.268C421.293 308.291 421.288 308.312 421.28 308.335C421.19 308.63 421.095 308.923 420.997 309.215C420.967 309.309 420.934 309.403 420.902 309.497C420.817 309.745 420.733 309.991 420.646 310.236C420.594 310.385 420.54 310.531 420.486 310.68C420.41 310.883 420.336 311.09 420.257 311.293C420.178 311.5 420.097 311.706 420.015 311.912C419.955 312.066 419.896 312.217 419.833 312.372C419.684 312.737 419.529 313.1 419.371 313.463C419.216 313.813 419.058 314.16 418.895 314.507C418.849 314.606 418.803 314.703 418.756 314.799C418.629 315.068 418.498 315.335 418.368 315.601C418.327 315.684 418.286 315.768 418.243 315.851C418.066 316.199 417.889 316.543 417.704 316.885C417.699 316.896 417.693 316.906 417.688 316.917C417.508 317.251 417.324 317.582 417.136 317.914C417.103 317.971 417.068 318.031 417.035 318.089C416.848 318.415 416.657 318.739 416.464 319.063C416.459 319.07 416.456 319.078 416.451 319.083C403.696 340.175 376.218 349.411 352.209 339.689C326.164 329.142 313.91 300.216 324.894 275.207C335.879 250.199 366.005 238.433 392.053 248.98C411.143 256.71 422.821 274.311 423.376 293.006ZM364.529 214.51L364.858 213.763C365.709 211.823 368.045 210.912 370.065 211.729L411.755 228.612C412.476 228.905 412.815 229.706 412.511 230.398L411.244 233.285C411.157 233.481 411.094 233.679 411.037 233.88L364.301 214.953C364.382 214.81 364.461 214.664 364.529 214.51ZM147.399 126.443L148.666 123.555C148.971 122.863 149.806 122.537 150.526 122.83L192.216 139.712C194.237 140.53 195.185 142.775 194.334 144.712L194.005 145.458C193.937 145.612 193.883 145.769 193.834 145.926L147.098 126.999C147.212 126.821 147.315 126.638 147.399 126.443ZM82.4185 175.736C82.4892 175.588 82.5626 175.439 82.6333 175.29C82.7284 175.089 82.8263 174.891 82.9242 174.692C83.0221 174.496 83.1227 174.301 83.2233 174.107C83.2967 173.966 83.3674 173.828 83.4408 173.687C83.5632 173.455 83.6882 173.225 83.8133 172.995C83.8622 172.909 83.9085 172.823 83.9574 172.734C84.1097 172.463 84.2619 172.194 84.4169 171.925C84.4278 171.904 84.4414 171.886 84.4523 171.865C86.932 167.62 90.0479 163.769 93.6805 160.423C93.8735 160.245 94.0666 160.065 94.2651 159.89C94.3058 159.853 94.3439 159.819 94.3847 159.786C108.716 147.116 129.995 142.861 149.085 150.591C175.13 161.138 187.385 190.066 176.4 215.073C165.415 240.081 135.286 251.847 109.241 241.3C85.2326 231.578 72.9428 206.239 79.7702 182.746C79.7729 182.738 79.7756 182.73 79.7783 182.723C79.8817 182.365 79.9931 182.007 80.1046 181.65C80.1236 181.587 80.1454 181.524 80.1644 181.462C80.2813 181.101 80.3983 180.744 80.5233 180.383C80.5261 180.373 80.5315 180.363 80.5342 180.352C80.662 179.987 80.7952 179.624 80.9312 179.261C80.9638 179.175 80.9964 179.089 81.0318 179.002C81.1378 178.726 81.2466 178.449 81.3581 178.175C81.3988 178.076 81.4396 177.976 81.4804 177.875C81.6245 177.522 81.7741 177.17 81.9263 176.82C82.0867 176.454 82.2499 176.094 82.4185 175.736ZM378.306 444.247C371.017 459.71 362.656 471.066 353.452 478.003C344.593 484.681 335.417 486.866 326.181 484.503C316.615 482.054 307.833 474.679 302.088 464.268C297.506 455.966 292.626 441.801 295.385 421.467C297.523 405.72 289.216 390.589 270.694 376.494C256.006 365.315 235.198 354.789 207.084 344.318C179.649 332.296 157.275 325.336 138.688 323.039C115.25 320.143 98.1668 324.991 87.9108 337.452C74.6694 353.544 60.6965 360.073 51.3079 362.717C39.532 366.033 27.9029 365.145 19.4006 360.277C11.1893 355.575 6.41752 347.74 5.21301 336.987C3.96228 325.819 6.59697 312.144 13.041 296.34C22.2583 273.732 56.0688 223.467 73.8537 197.692C74.5715 217.76 87.1549 236.608 107.656 244.91C135.776 256.298 168.297 243.597 180.158 216.598C192.018 189.599 178.787 158.373 150.67 146.986C137.674 141.723 123.733 141.61 111.329 145.672C119.508 135.742 127.116 131.677 132.176 130.022C136.551 128.591 139.778 128.685 141.08 128.813L196.366 151.202L273.867 185.148L279.137 187.283L358.634 216.911C358.762 216.958 358.893 217 359.023 217.037L359.01 217.065L413.887 239.287C414.898 240.099 417.217 242.253 419.202 246.252C421.5 250.886 423.778 258.953 422.079 271.51C416.451 260.143 406.638 250.641 393.641 245.375C365.521 233.987 333 246.691 321.14 273.687C309.279 300.686 322.51 331.912 350.627 343.3C371.128 351.601 393.967 347.095 409.436 333.583C402.625 363.798 388.733 422.13 378.306 444.247Z" fill="#FFCADD"/>
<path d="M257.65 248.715C258.713 246.295 256.097 242.924 251.806 241.186C247.516 239.449 243.176 240.003 242.112 242.423C241.049 244.844 243.665 248.214 247.956 249.952C252.247 251.689 256.587 251.136 257.65 248.715Z" fill="#FFF6E1"/>
<path d="M241.637 175.622C232.392 196.666 237.841 220.172 253.524 235.857C253.842 235.966 254.157 236.081 254.473 236.209L254.565 236.246L254.644 236.277C258.424 237.807 261.355 240.462 263.206 243.662C266.352 245.691 269.743 247.464 273.367 248.931C281.255 252.126 289.45 253.567 297.471 253.442L293.887 251.99C288.656 249.873 286.195 244.065 288.403 239.042C290.608 234.019 296.658 231.656 301.889 233.776L316.088 239.525C319.709 240.992 322.001 244.226 322.336 247.743C334.476 242.07 344.569 232.374 350.192 219.574C350.931 217.89 351.576 216.188 352.128 214.476L279.137 187.273L273.867 185.137L243.477 171.834C242.819 173.063 242.205 174.327 241.637 175.622Z" fill="url(#paint18_linear_24_141)"/>
<path d="M329.9 357.849C333.767 349.782 338.881 344.36 344.648 340.457C320.694 327.317 310.158 298.689 321.14 273.685C322.418 270.774 323.937 268.033 325.664 265.466C317.79 271.113 311.968 279.517 309.225 287.785C306.805 295.076 305.429 299.877 303.855 302.736C321.811 311.737 329.889 332.682 321.882 350.912C313.448 370.116 290.314 379.149 270.314 371.051C250.313 362.953 240.905 340.741 249.339 321.537C249.383 321.436 249.432 321.339 249.475 321.237C240.745 327.511 239.423 341.561 231.109 337.995C220.768 333.562 183.1 321.994 191.14 309.521C194.65 304.072 195.914 299.402 196.126 295.175C195.702 296.583 195.188 297.982 194.582 299.363C186.148 318.567 163.014 327.599 143.014 319.501C130.403 314.395 122.007 303.676 119.636 291.641C116.531 295.925 112.934 300.634 108.64 305.607C99.9831 315.635 96.1602 324.404 94.5968 331.1C104.986 323.409 119.766 320.694 138.69 323.033C157.28 325.331 179.655 332.291 207.086 344.313C235.201 354.784 256.009 365.31 270.697 376.489C285.238 387.555 293.479 399.261 295.317 411.401C295.66 403.292 293.376 393.024 300.263 388.61C310.595 381.984 320.724 376.99 329.9 357.849Z" fill="url(#paint19_linear_24_141)"/>
<path d="M240.538 273.982C250.56 278.042 262.111 273.531 266.339 263.908C269.131 257.548 268.024 250.549 264.06 245.359C265.83 249.419 265.971 254.131 264.052 258.496C260.267 267.114 249.886 271.168 240.911 267.534L240.824 267.5L240.739 267.466C232.99 264.328 228.789 256.47 230.222 248.834C230.162 248.959 230.1 249.085 230.046 249.213C225.82 258.833 230.516 269.923 240.538 273.982Z" fill="url(#paint20_linear_24_141)"/>
<path d="M109.736 368.539C111.892 364.843 113.823 361.031 115.449 357.089C116.218 355.22 117.009 353.304 117.735 351.374V347.169C117.782 346.67 117.852 346.177 117.95 345.688C117.646 345.346 117.458 344.908 117.455 344.422C117.349 319.086 110.016 302.582 103.882 293.199C99.2952 286.179 94.6811 281.992 92.2476 280.057C91.595 281.182 90.9234 282.305 90.2247 283.433C81.6381 297.287 72.6519 306.482 72.2739 306.866C71.5018 307.651 70.2102 307.688 69.3918 306.944C68.5734 306.203 68.5354 304.963 69.3103 304.177C69.4 304.085 78.4107 294.857 86.7688 281.352C94.4065 269.012 103.053 250.455 100.872 232.144C99.6894 222.177 95.4179 213.189 88.1392 205.276L74.131 226.806C71.6459 230.63 67.755 233.288 63.1735 234.288C59.56 235.076 55.8649 234.76 52.5206 233.405C52.2595 233.301 52.0012 233.186 51.7402 233.066C39.3743 252.57 28.7023 271.332 32.0956 281.456C38.4906 300.527 44.8911 339.318 44.7796 358.319C44.7307 366.722 50.8402 376.53 62.453 386.683C69.3048 392.677 77.7364 398.491 86.9972 403.668C93.4303 391.317 102.226 380.292 109.736 368.539Z" fill="#F5DDF2"/>
<path d="M89.8223 205.085C89.8223 205.085 91.7636 229.22 79.6641 256.765C67.5647 284.31 52.0746 290.244 54.6794 308.012C57.2842 325.78 57.9667 322.287 73.3316 302.456C88.6966 282.626 100.258 299.433 102.868 321.462C105.478 343.493 101.237 355.867 94.9774 365.456C88.7183 375.045 103.926 376.945 112.814 361.373C121.702 345.801 122.192 344.688 120.185 333.716C118.178 322.743 113.135 301.203 104.439 290.309C95.7442 279.415 91.2307 277.258 91.2307 277.258C91.2307 277.258 97.7372 263.999 98.2864 262.749C98.8357 261.496 102.183 251.546 102.96 240.062C103.735 228.578 101.139 211.961 89.8223 205.085Z" fill="#FF99CB"/>
<path d="M79.6043 195.131C79.6043 195.131 87.0761 198.321 86.709 202.268C86.3392 206.216 74.4845 224.271 71.325 227.581C68.1656 230.889 65.4928 231.923 60.8026 231.915C56.1123 231.907 50.049 229.954 49.6575 229.704C49.2659 229.453 71.2707 198.175 72.2033 197.024C73.1359 195.872 74.112 193.646 75.186 193.343C76.2573 193.037 79.6043 195.131 79.6043 195.131Z" fill="#2E299C"/>
<path d="M101.808 411.074C86.7988 404.417 72.8205 395.755 62.453 386.686C50.843 376.533 44.7307 366.725 44.7796 358.321C44.8911 339.321 38.4934 300.532 32.0956 281.459C28.7023 271.335 39.3743 252.572 51.7402 233.068C52.0012 233.189 52.2596 233.301 52.5206 233.408C55.8676 234.763 59.5627 235.081 63.1735 234.29C67.7523 233.288 71.6432 230.633 74.131 226.808L88.1392 205.278C95.4179 213.189 99.6868 222.177 100.872 232.147C103.05 250.458 94.4038 269.014 86.7689 281.355C78.4107 294.859 69.4 304.088 69.3103 304.179C68.5381 304.965 68.5734 306.205 69.3919 306.947C70.2103 307.688 71.5018 307.654 72.274 306.868C72.6519 306.485 81.6381 297.29 90.2247 283.435C90.9235 282.31 91.5951 281.185 92.2476 280.06C94.6838 281.992 99.2979 286.182 103.882 293.202C110.016 302.584 117.349 319.089 117.455 344.425C117.461 345.234 117.972 345.926 118.703 346.224C118.948 346.323 119.217 346.378 119.5 346.378C120.626 346.372 121.536 345.495 121.531 344.412C121.422 318 113.67 300.731 107.188 290.894C101.943 282.939 96.7203 278.439 94.2107 276.546C97.343 270.74 99.8417 265.01 101.658 259.438C104.847 249.651 105.946 240.326 104.926 231.716C103.545 220.094 98.3327 209.735 89.3845 200.78C89.3356 200.723 89.2785 200.671 89.2187 200.618C87.1713 198.585 84.9281 196.619 82.4946 194.734L78.514 191.831C77.6739 191.257 76.8174 190.688 75.9419 190.129C75.4579 189.821 74.857 189.724 74.2915 189.865C73.7259 190.009 73.2555 190.374 72.9918 190.876C68.0269 200.295 61.1642 210.951 54.5245 221.255C38.6592 245.879 23.6749 269.134 28.2129 282.663C34.5073 301.441 40.8099 339.613 40.6984 358.3C40.6441 367.842 47.2158 378.661 59.7041 389.583C70.3761 398.914 84.7188 407.808 100.097 414.63C100.467 414.794 100.834 414.967 101.198 415.144C101.941 414.115 102.71 413.027 103.501 411.881C102.95 411.599 102.384 411.33 101.808 411.074ZM57.9966 223.315C64.2231 213.651 70.648 203.678 75.5748 194.624C79.1747 197.055 82.3967 199.629 85.2462 202.339L70.6752 224.735C68.7665 227.67 65.7838 229.706 62.2736 230.476C59.4241 231.097 56.512 230.823 53.8882 229.709C55.2504 227.578 56.6235 225.443 57.9966 223.315Z" fill="#FFCADD"/>
<path d="M342.024 201.109C341.121 199.723 339.313 197.65 335.817 195.642C329.919 192.256 322.613 195.191 321.768 196.449C316.553 207.299 315.525 213.711 315.335 216.204C321.167 222.062 327.796 222.404 329.519 222.01C334.386 216.909 339.914 207.174 342.097 203.164C342.454 202.511 342.426 201.725 342.024 201.109Z" fill="#2E299C"/>
<path d="M286.543 152.418C284.719 151.458 282.867 150.601 281.007 149.849C270.988 145.793 260.852 144.814 254.546 147.516C250.813 149.116 248.426 151.967 247.447 155.99C244.35 168.727 242.746 199.987 253.067 214.53C256.104 218.809 259.992 221.308 264.626 221.958C276.747 223.657 283.762 221.438 287.511 219.276C291.47 216.995 292.666 214.376 292.715 214.267L292.734 214.222L292.748 214.196C300.959 197.084 304.056 182.96 301.952 172.223C300.236 163.446 295.195 156.969 286.543 152.418ZM289.292 215.556L289.039 215.825C285.806 219.284 273.933 222.49 261.096 217.292C260.534 217.065 259.973 216.822 259.408 216.561L258.685 216.227L258.38 215.481C257.042 212.21 254.016 202.459 254.802 182.602C254.911 180.399 256.939 177.543 260.226 174.94C262.823 172.886 269.835 168.241 278.838 169.497C285.668 170.45 290.032 172.651 292.49 174.327C294.823 175.917 296.117 178.613 295.867 181.362C295.241 188.244 293.362 205.317 289.428 215.217L289.292 215.556Z" fill="#F5DDF2"/>
<path d="M290.127 177.52C288.036 176.092 284.276 174.214 278.25 173.374C270.86 172.343 264.998 176.24 262.82 177.963C259.935 180.248 258.902 182.221 258.875 182.772C258.16 200.866 260.74 210.16 261.909 213.363C273.946 218.593 283.677 215.11 285.771 213.423C289.417 203.923 291.201 187.646 291.802 181.02C291.927 179.65 291.285 178.308 290.127 177.52Z" fill="#2E299C"/>
<path d="M342.984 177.159C339.243 173.927 335.11 171.395 331.143 169.789C327.021 168.121 323.078 167.448 319.943 168.022C316.906 168.578 314.726 170.212 313.276 173.016C308.572 182.114 301.549 205.453 306.637 218.172C308.121 221.885 310.465 224.299 313.79 225.568C330.286 231.831 335.844 224.991 336.072 224.696L336.116 224.634L336.118 224.639C345.502 213.105 350.464 202.978 350.866 194.538C351.184 187.704 348.609 182.02 342.984 177.159ZM345.716 204.976C343.405 209.223 337.456 219.676 332.16 225.036L331.899 225.299L331.556 225.456C329.56 226.37 325.313 226.32 320.707 224.453C317.697 223.234 314.532 221.24 311.737 218.235L311.202 217.661L311.218 216.89C311.272 214.405 312.047 207.322 318.081 194.776C319.198 192.512 322.926 191.278 324.043 190.951C326.346 190.28 332.301 189.066 337.908 192.285C342.103 194.695 344.341 197.287 345.48 199.036C346.649 200.822 346.736 203.098 345.716 204.976Z" fill="#F5DDF2"/>
<path d="M345.711 174.248C339.134 168.565 328.236 162.516 319.176 164.177C314.924 164.957 311.618 167.411 309.619 171.275C308.79 172.878 307.738 175.282 306.653 178.219C306.607 175.867 306.375 173.622 305.959 171.494C304.029 161.636 298.156 154.063 288.501 148.983C278.685 143.819 263.47 139.399 252.882 143.939C247.994 146.035 244.739 149.894 243.475 155.097C242.082 160.825 240.639 171.943 241.153 184.422C241.558 194.241 243.369 207.813 249.698 216.731C252.325 220.433 255.514 223.046 259.217 224.547C260.737 225.163 262.347 225.592 264.038 225.829C289.798 229.442 295.978 216.903 296.468 215.799C298.11 212.377 299.551 209.064 300.796 205.86C300.668 210.813 301.22 215.562 302.825 219.574C304.665 224.174 307.727 227.367 311.936 229.069C312.053 229.116 312.17 229.163 312.287 229.207C331.406 236.467 338.674 227.892 339.346 227.025C349.251 214.849 354.496 203.976 354.936 194.713C355.312 186.751 352.209 179.864 345.711 174.248ZM292.748 214.191L292.734 214.217L292.715 214.261C292.666 214.371 291.47 216.99 287.511 219.271C283.762 221.433 276.747 223.652 264.626 221.952C259.992 221.302 256.104 218.804 253.067 214.525C242.746 199.981 244.35 168.722 247.447 155.984C248.426 151.964 250.813 149.113 254.546 147.51C260.852 144.806 270.988 145.785 281.007 149.844C282.864 150.596 284.719 151.455 286.543 152.413C295.195 156.966 300.236 163.443 301.952 172.215C304.056 182.957 300.959 197.078 292.748 214.191ZM336.113 224.639L336.11 224.633L336.067 224.696C335.838 224.991 330.281 231.831 313.785 225.568C310.459 224.302 308.116 221.884 306.631 218.172C301.544 205.453 308.567 182.114 313.271 173.016C314.72 170.212 316.901 168.578 319.938 168.022C323.073 167.448 327.015 168.119 331.137 169.789C335.104 171.395 339.237 173.927 342.978 177.159C348.604 182.02 351.182 187.704 350.855 194.538C350.458 202.978 345.496 213.105 336.113 224.639Z" fill="#FFCADD"/>
<path d="M292.49 174.327C290.032 172.651 285.668 170.452 278.838 169.497C269.835 168.241 262.823 172.886 260.226 174.94C256.939 177.543 254.911 180.399 254.802 182.602C254.016 202.459 257.042 212.212 258.38 215.481L258.685 216.227L259.408 216.561C259.973 216.822 260.533 217.065 261.096 217.292C273.933 222.49 285.806 219.284 289.039 215.825L289.292 215.556L289.428 215.217C293.362 205.317 295.241 188.244 295.867 181.362C296.114 178.613 294.82 175.917 292.49 174.327ZM261.912 213.363C260.743 210.158 258.162 200.866 258.878 182.772C258.905 182.221 259.935 180.248 262.823 177.963C265.001 176.24 270.863 172.343 278.253 173.374C284.278 174.214 288.036 176.091 290.13 177.519C291.288 178.31 291.93 179.65 291.804 181.02C291.204 187.643 289.42 203.921 285.774 213.423C283.68 215.107 273.949 218.59 261.912 213.363Z" fill="#FFCADD"/>
<path d="M345.485 199.034C344.346 197.282 342.108 194.69 337.913 192.283C332.306 189.064 326.349 190.278 324.049 190.949C322.931 191.275 319.204 192.51 318.086 194.773C312.053 207.32 311.278 214.402 311.223 216.888L311.207 217.658L311.743 218.232C314.538 221.24 317.703 223.234 320.713 224.451C325.321 226.317 329.566 226.367 331.561 225.453L331.904 225.297L332.165 225.033C337.462 219.676 343.408 209.22 345.722 204.973C346.736 203.098 346.649 200.822 345.485 199.034ZM342.1 203.161C339.917 207.174 334.389 216.906 329.522 222.007C327.798 222.401 321.169 222.059 315.337 216.201C315.528 213.708 316.555 207.296 321.77 196.447C322.613 195.191 329.919 192.254 335.819 195.64C339.316 197.647 341.124 199.72 342.027 201.106C342.426 201.725 342.454 202.511 342.1 203.161Z" fill="#FFCADD"/>
<path d="M298.83 163.694C295.462 159.772 289.64 155.259 280.186 153.998C262.535 151.643 255.158 163.772 254.753 171.103C254.378 177.875 262.233 166.91 270.088 170.017C272.679 169.351 275.629 169.048 278.835 169.497C285.665 170.45 290.029 172.651 292.487 174.327C294.82 175.917 296.114 178.613 295.864 181.362C295.239 188.244 293.36 205.317 289.425 215.217L289.289 215.556L289.037 215.825C285.804 219.284 273.93 222.49 261.094 217.292C260.531 217.065 259.971 216.823 259.405 216.561L258.682 216.227L258.377 215.481C258.048 214.679 257.621 213.486 257.17 211.854C255.919 210.698 254.446 208.215 253.17 204.135C250.693 196.206 248.2 202.848 250.674 210.447C251.39 211.915 252.183 213.285 253.067 214.528C256.104 218.807 259.992 221.305 264.626 221.955C276.747 223.655 283.762 221.436 287.511 219.274C291.47 216.992 292.666 214.374 292.715 214.264L292.734 214.22L292.748 214.194C300.959 197.081 304.056 182.957 301.952 172.22C301.34 169.09 300.301 166.255 298.83 163.694Z" fill="#FF99CB"/>
<path d="M342.984 177.159C341.102 175.535 339.123 174.087 337.116 172.844C335.281 172.773 333.916 173.846 334.748 177.812C336.692 187.08 334.702 185.782 337.521 188.398C340.341 191.014 335.885 189.21 330.944 187.638C326.004 186.067 318.499 190.035 316.659 195.248C314.815 200.462 310.71 208.938 310.144 212.703C309.742 215.387 307.678 217.334 306.104 216.658C306.264 217.178 306.441 217.684 306.636 218.172C308.121 221.885 310.465 224.299 313.79 225.568C330.286 231.831 335.844 224.991 336.072 224.696L336.116 224.634L336.118 224.639C345.502 213.105 350.464 202.978 350.866 194.538C351.184 187.704 348.609 182.02 342.984 177.159ZM345.716 204.976C343.405 209.223 337.456 219.676 332.16 225.036L331.899 225.299L331.556 225.456C329.56 226.37 325.313 226.32 320.707 224.453C317.697 223.234 314.532 221.24 311.737 218.235L311.202 217.661L311.218 216.89C311.272 214.405 312.047 207.322 318.081 194.776C319.198 192.512 322.926 191.278 324.043 190.951C326.346 190.28 332.301 189.066 337.907 192.285C342.103 194.695 344.341 197.287 345.48 199.036C346.649 200.822 346.736 203.098 345.716 204.976Z" fill="#FF99CB"/>
<path d="M91.6603 395.504C86.6247 394.034 80.7137 392.322 72.1978 387.691C56.2891 379.036 77.1083 367.189 83.0465 347.842C88.9848 328.495 72.4969 323.785 65.9197 329.724C59.3425 335.663 56.1912 346.92 52.4145 337.159C48.6378 327.398 47.6481 319.746 45.6714 307.638C43.6947 295.533 37.5498 275.716 40.6685 268.623C43.7845 261.527 51.5879 243.182 56.2891 242.383C60.9929 241.584 67.4614 241.133 74.2235 232.442C79.9279 225.111 83.1635 216.345 82.0351 214.666L74.1337 226.811C71.6486 230.635 67.7577 233.293 63.1762 234.293C59.5627 235.081 55.8676 234.765 52.5233 233.41C52.2623 233.306 52.0039 233.191 51.7429 233.071C39.377 252.575 28.705 271.338 32.0983 281.462C38.4933 300.532 44.8938 339.324 44.7823 358.324C44.7334 366.727 50.8429 376.535 62.4557 386.688C69.3075 392.682 77.7391 398.496 86.9999 403.673C88.4437 400.89 90.0153 398.175 91.6603 395.504Z" fill="#FFFCFA"/>
<defs>
<linearGradient id="paint0_linear_24_141" x1="71.2554" y1="190.487" x2="68.4884" y2="288.744" gradientUnits="userSpaceOnUse">
<stop stop-color="#2E2594"/>
<stop offset="1" stop-color="#F73B6C"/>
</linearGradient>
<linearGradient id="paint1_linear_24_141" x1="377.656" y1="233.853" x2="371.386" y2="501.313" gradientUnits="userSpaceOnUse">
<stop stop-color="#2E2594"/>
<stop offset="1" stop-color="#F73B6C"/>
</linearGradient>
<linearGradient id="paint2_linear_24_141" x1="366.891" y1="262.402" x2="448.754" y2="291.242" gradientUnits="userSpaceOnUse">
<stop stop-color="#2E2594"/>
<stop offset="1" stop-color="#F73B6C"/>
</linearGradient>
<linearGradient id="paint3_linear_24_141" x1="345.197" y1="312.671" x2="418.958" y2="357.376" gradientUnits="userSpaceOnUse">
<stop stop-color="#2E2594"/>
<stop offset="1" stop-color="#F73B6C"/>
</linearGradient>
<linearGradient id="paint4_linear_24_141" x1="343.362" y1="266.243" x2="357.095" y2="348.904" gradientUnits="userSpaceOnUse">
<stop stop-color="#2E2594"/>
<stop offset="1" stop-color="#F73B6C"/>
</linearGradient>
<linearGradient id="paint5_linear_24_141" x1="399.215" y1="288.862" x2="412.949" y2="371.523" gradientUnits="userSpaceOnUse">
<stop stop-color="#2E2594"/>
<stop offset="1" stop-color="#F73B6C"/>
</linearGradient>
<linearGradient id="paint6_linear_24_141" x1="286.618" y1="316.062" x2="288.014" y2="404.947" gradientUnits="userSpaceOnUse">
<stop stop-color="#2E2594"/>
<stop offset="1" stop-color="#F73B6C"/>
</linearGradient>
<linearGradient id="paint7_linear_24_141" x1="213.694" y1="197.346" x2="212.915" y2="245.408" gradientUnits="userSpaceOnUse">
<stop stop-color="#2E2594"/>
<stop offset="1" stop-color="#F73B6C"/>
</linearGradient>
<linearGradient id="paint8_linear_24_141" x1="134.687" y1="135.464" x2="128.418" y2="402.924" gradientUnits="userSpaceOnUse">
<stop stop-color="#2E2594"/>
<stop offset="1" stop-color="#F73B6C"/>
</linearGradient>
<linearGradient id="paint9_linear_24_141" x1="306.419" y1="234.895" x2="305.64" y2="282.956" gradientUnits="userSpaceOnUse">
<stop stop-color="#2E2594"/>
<stop offset="1" stop-color="#F73B6C"/>
</linearGradient>
<linearGradient id="paint10_linear_24_141" x1="105.467" y1="182.984" x2="211.725" y2="237.079" gradientUnits="userSpaceOnUse">
<stop stop-color="#2E2594"/>
<stop offset="1" stop-color="#F73B6C"/>
</linearGradient>
<linearGradient id="paint11_linear_24_141" x1="391.065" y1="208.862" x2="390.373" y2="269.883" gradientUnits="userSpaceOnUse">
<stop stop-color="#2E2594"/>
<stop offset="1" stop-color="#F73B6C"/>
</linearGradient>
<linearGradient id="paint12_linear_24_141" x1="173.438" y1="120.069" x2="172.686" y2="183.134" gradientUnits="userSpaceOnUse">
<stop stop-color="#2E2594"/>
<stop offset="1" stop-color="#F73B6C"/>
</linearGradient>
<linearGradient id="paint13_linear_24_141" x1="249.166" y1="235.798" x2="247.506" y2="306.863" gradientUnits="userSpaceOnUse">
<stop stop-color="#2E2594"/>
<stop offset="1" stop-color="#F73B6C"/>
</linearGradient>
<linearGradient id="paint14_linear_24_141" x1="49.2512" y1="178.591" x2="26.1896" y2="631.379" gradientUnits="userSpaceOnUse">
<stop stop-color="#2E2594"/>
<stop offset="1" stop-color="#F73B6C"/>
</linearGradient>
<linearGradient id="paint15_linear_24_141" x1="138.292" y1="126.669" x2="137.843" y2="176.014" gradientUnits="userSpaceOnUse">
<stop stop-color="#2E2594"/>
<stop offset="1" stop-color="#F73B6C"/>
</linearGradient>
<linearGradient id="paint16_linear_24_141" x1="358.33" y1="316.21" x2="344.981" y2="728.538" gradientUnits="userSpaceOnUse">
<stop stop-color="#2E2594"/>
<stop offset="1" stop-color="#F73B6C"/>
</linearGradient>
<linearGradient id="paint17_linear_24_141" x1="409.791" y1="227.048" x2="406.131" y2="335.351" gradientUnits="userSpaceOnUse">
<stop stop-color="#2E2594"/>
<stop offset="1" stop-color="#F73B6C"/>
</linearGradient>
<linearGradient id="paint18_linear_24_141" x1="300.822" y1="162.5" x2="296.979" y2="384.29" gradientUnits="userSpaceOnUse">
<stop stop-color="#2E2594"/>
<stop offset="1" stop-color="#F73B6C"/>
</linearGradient>
<linearGradient id="paint19_linear_24_141" x1="233.094" y1="248.778" x2="227.443" y2="645.391" gradientUnits="userSpaceOnUse">
<stop stop-color="#2E2594"/>
<stop offset="1" stop-color="#F73B6C"/>
</linearGradient>
<linearGradient id="paint20_linear_24_141" x1="250.314" y1="241.916" x2="248.787" y2="323.748" gradientUnits="userSpaceOnUse">
<stop stop-color="#2E2594"/>
<stop offset="1" stop-color="#F73B6C"/>
</linearGradient>
</defs>
</svg>
