<svg width="20" height="20" viewBox="0 0 20 20" fill="none" xmlns="http://www.w3.org/2000/svg">
<g clip-path="url(#clip0_31_26)">
<path d="M4.51503 19.3038C4.03253 19.5513 3.48503 19.1175 3.58253 18.5638L4.62003 12.6513L0.216276 8.45627C-0.194974 8.06377 0.0187758 7.34627 0.570026 7.26877L6.69253 6.39877L9.42253 0.990015C9.66878 0.502515 10.335 0.502515 10.5813 0.990015L13.3113 6.39877L19.4338 7.26877C19.985 7.34627 20.1988 8.06377 19.7863 8.45627L15.3838 12.6513L16.4213 18.5638C16.5188 19.1175 15.9713 19.5513 15.4888 19.3038L10 16.4838L4.51378 19.3038H4.51503Z" fill="url(#paint0_linear_31_26)"/>
</g>
<defs>
<linearGradient id="paint0_linear_31_26" x1="11.0793" y1="-1.51991" x2="9.91324" y2="49.4233" gradientUnits="userSpaceOnUse">
<stop stop-color="#2E2594"/>
<stop offset="1" stop-color="#F73B6C"/>
</linearGradient>
<clipPath id="clip0_31_26">
<rect width="20" height="20" fill="white"/>
</clipPath>
</defs>
</svg>
